<svg width="262" height="87" viewBox="0 0 262 87" fill="none" xmlns="http://www.w3.org/2000/svg">
<path d="M4.5 4H27C39.4264 4 49.5 14.0736 49.5 26.5C49.5 38.9264 39.4264 49 27 49C14.5736 49 4.5 38.9264 4.5 26.5V4Z" stroke="#41B54A" stroke-width="7"/>
<path d="M37.5 59.5C37.5 47.0736 47.5736 37 60 37C72.4264 37 82.5 47.0736 82.5 59.5V82H60C47.5736 82 37.5 71.9264 37.5 59.5Z" stroke="#41B54A" stroke-width="7"/>
<path d="M82.5 14C82.5 19.799 77.799 24.5 72 24.5C66.201 24.5 61.5 19.799 61.5 14C61.5 8.20101 66.201 3.5 72 3.5C77.799 3.5 82.5 8.20101 82.5 14Z" stroke="#41B54A" stroke-width="7"/>
<path d="M18.5 75.5C18.5 79.6421 15.1421 83 11 83C6.85786 83 3.5 79.6421 3.5 75.5C3.5 71.3579 6.85786 68 11 68C15.1421 68 18.5 71.3579 18.5 75.5Z" stroke="#41B54A" stroke-width="7"/>
<path d="M101 33.09C101 31.0833 101.583 29.4966 102.75 28.33C103.917 27.1633 105.503 26.58 107.51 26.58H130.61C130.937 27.0933 131.217 27.77 131.45 28.61C131.73 29.45 131.87 30.3366 131.87 31.27C131.87 33.0433 131.473 34.3033 130.68 35.05C129.933 35.7966 128.93 36.17 127.67 36.17H112.9V42.68H128.65C128.977 43.1933 129.257 43.87 129.49 44.71C129.77 45.5033 129.91 46.3666 129.91 47.3C129.91 49.0733 129.537 50.3333 128.79 51.08C128.043 51.8266 127.04 52.2 125.78 52.2H112.9V59.55H130.89C131.217 60.0633 131.497 60.74 131.73 61.58C132.01 62.42 132.15 63.3066 132.15 64.24C132.15 66.0133 131.753 67.2966 130.96 68.09C130.213 68.8366 129.21 69.21 127.95 69.21H107.51C105.503 69.21 103.917 68.6267 102.75 67.46C101.583 66.2933 101 64.7066 101 62.7V33.09Z" fill="#41B54A"/>
<path d="M153.708 33.93C156.508 33.93 159.098 34.3033 161.478 35.05C163.904 35.75 165.981 36.8466 167.708 38.34C169.434 39.8333 170.788 41.7233 171.768 44.01C172.748 46.25 173.238 48.9333 173.238 52.06C173.238 55.0466 172.818 57.66 171.978 59.9C171.138 62.14 169.948 64.03 168.408 65.57C166.868 67.0633 165.001 68.1833 162.808 68.93C160.661 69.6766 158.258 70.05 155.598 70.05C153.591 70.05 151.724 69.7467 149.998 69.14V80.76C149.531 80.9 148.784 81.04 147.758 81.18C146.731 81.3666 145.681 81.46 144.608 81.46C143.581 81.46 142.648 81.39 141.808 81.25C141.014 81.11 140.338 80.83 139.778 80.41C139.218 79.99 138.798 79.4067 138.518 78.66C138.238 77.96 138.098 77.0266 138.098 75.86V42.26C138.098 41 138.354 39.9733 138.868 39.18C139.428 38.3866 140.174 37.6633 141.108 37.01C142.554 36.0766 144.351 35.33 146.498 34.77C148.644 34.21 151.048 33.93 153.708 33.93ZM153.848 60.67C158.654 60.67 161.058 57.8 161.058 52.06C161.058 49.0733 160.451 46.8566 159.238 45.41C158.071 43.9633 156.368 43.24 154.128 43.24C153.241 43.24 152.448 43.3566 151.748 43.59C151.048 43.7766 150.441 44.01 149.928 44.29V59.69C150.488 59.97 151.094 60.2033 151.748 60.39C152.401 60.5766 153.101 60.67 153.848 60.67Z" fill="#41B54A"/>
<path d="M178.765 25.53C178.765 23.7566 179.348 22.2633 180.515 21.05C181.728 19.8366 183.315 19.23 185.275 19.23C187.235 19.23 188.798 19.8366 189.965 21.05C191.178 22.2633 191.785 23.7566 191.785 25.53C191.785 27.3033 191.178 28.7966 189.965 30.01C188.798 31.2233 187.235 31.83 185.275 31.83C183.315 31.83 181.728 31.2233 180.515 30.01C179.348 28.7966 178.765 27.3033 178.765 25.53ZM191.225 68.93C190.712 69.0233 189.942 69.14 188.915 69.28C187.935 69.4667 186.932 69.56 185.905 69.56C184.878 69.56 183.945 69.49 183.105 69.35C182.312 69.21 181.635 68.93 181.075 68.51C180.515 68.09 180.072 67.53 179.745 66.83C179.465 66.0833 179.325 65.1267 179.325 63.96V35.47C179.838 35.3766 180.585 35.26 181.565 35.12C182.592 34.9333 183.618 34.84 184.645 34.84C185.672 34.84 186.582 34.91 187.375 35.05C188.215 35.19 188.915 35.47 189.475 35.89C190.035 36.31 190.455 36.8933 190.735 37.64C191.062 38.34 191.225 39.2733 191.225 40.44V68.93Z" fill="#41B54A"/>
<path d="M197.611 47.72C197.611 44.08 198.171 40.86 199.291 38.06C200.458 35.26 202.021 32.9266 203.981 31.06C205.988 29.1466 208.321 27.7 210.981 26.72C213.688 25.74 216.604 25.25 219.731 25.25C222.858 25.25 225.751 25.74 228.411 26.72C231.118 27.7 233.474 29.1466 235.481 31.06C237.488 32.9266 239.051 35.26 240.171 38.06C241.338 40.86 241.921 44.08 241.921 47.72C241.921 52.2933 241.081 56.19 239.401 59.41C237.721 62.5833 235.434 65.08 232.541 66.9C233.241 67.2267 234.058 67.5766 234.991 67.95C235.971 68.3233 236.974 68.6966 238.001 69.07C239.074 69.4433 240.171 69.7933 241.291 70.12C242.411 70.4933 243.461 70.82 244.441 71.1C244.488 71.38 244.511 71.6133 244.511 71.8C244.511 72.0333 244.511 72.2433 244.511 72.43C244.511 75.09 243.811 77.0266 242.411 78.24C241.058 79.4533 239.261 80.06 237.021 80.06C234.874 80.06 232.658 79.4533 230.371 78.24C228.084 77.0733 225.751 75.37 223.371 73.13L220.291 70.26H219.731C216.558 70.26 213.618 69.77 210.911 68.79C208.204 67.7633 205.871 66.2933 203.911 64.38C201.951 62.4666 200.411 60.11 199.291 57.31C198.171 54.51 197.611 51.3133 197.611 47.72ZM210.211 47.72C210.211 51.9666 211.074 55.14 212.801 57.24C214.528 59.34 216.838 60.39 219.731 60.39C222.671 60.39 225.004 59.34 226.731 57.24C228.458 55.14 229.321 51.9666 229.321 47.72C229.321 43.52 228.458 40.37 226.731 38.27C225.051 36.17 222.741 35.12 219.801 35.12C216.908 35.12 214.574 36.17 212.801 38.27C211.074 40.3233 210.211 43.4733 210.211 47.72Z" fill="#41B54A"/>
<path d="M261.106 28.4C261.106 29.4733 261.083 31.0366 261.036 33.09C260.99 35.0966 260.896 37.29 260.756 39.67C260.616 42.0033 260.43 44.36 260.196 46.74C259.963 49.0733 259.683 51.1033 259.356 52.83C259.17 52.97 258.89 53.11 258.516 53.25C258.143 53.39 257.746 53.5066 257.326 53.6C256.906 53.6933 256.486 53.7633 256.066 53.81C255.646 53.8566 255.273 53.88 254.946 53.88C253.593 53.88 252.45 53.67 251.516 53.25C250.63 52.83 250.07 52.0133 249.836 50.8C249.603 49.7266 249.393 48.0933 249.206 45.9C249.066 43.7066 248.926 41.3266 248.786 38.76C248.646 36.1933 248.53 33.65 248.436 31.13C248.39 28.61 248.366 26.4633 248.366 24.69C249.3 24.1766 250.35 23.78 251.516 23.5C252.73 23.1733 253.92 23.01 255.086 23.01C257 23.01 258.47 23.4533 259.496 24.34C260.57 25.2266 261.106 26.58 261.106 28.4ZM248.226 63.68C248.226 61.7666 248.81 60.2033 249.976 58.99C251.19 57.73 252.846 57.1 254.946 57.1C257.046 57.1 258.68 57.73 259.846 58.99C261.06 60.2033 261.666 61.7666 261.666 63.68C261.666 65.5933 261.06 67.18 259.846 68.44C258.68 69.6533 257.046 70.26 254.946 70.26C252.846 70.26 251.19 69.6533 249.976 68.44C248.81 67.18 248.226 65.5933 248.226 63.68Z" fill="#41B54A"/>
</svg>
