<svg width="20" height="25" viewBox="0 0 20 25" fill="none" xmlns="http://www.w3.org/2000/svg">
<path d="M18.8461 25C18.6114 24.9957 18.3825 24.9315 18.1846 24.8143L10 19.5143L1.81538 24.8143C1.6346 24.9165 1.42703 24.9705 1.21538 24.9705C1.00374 24.9705 0.796167 24.9165 0.615385 24.8143C0.43833 24.7295 0.288319 24.6031 0.180332 24.4477C0.0723463 24.2923 0.0101654 24.1133 0 23.9286V3.92857C0 2.88665 0.44574 1.8874 1.23916 1.15065C2.03259 0.413902 3.1087 0 4.23077 0H15.7692C16.8913 0 17.9674 0.413902 18.7608 1.15065C19.5543 1.8874 20 2.88665 20 3.92857V23.9286C20.0008 24.1231 19.9437 24.314 19.8351 24.4804C19.7266 24.6467 19.5707 24.7821 19.3846 24.8714C19.2196 24.9555 19.0344 24.9997 18.8461 25ZM10 17.1429C10.2358 17.1405 10.4666 17.2054 10.6615 17.3286L17.6923 21.8714V3.92857C17.6923 3.45497 17.4897 3.00077 17.129 2.66588C16.7684 2.33099 16.2793 2.14286 15.7692 2.14286H4.23077C3.72074 2.14286 3.23159 2.33099 2.87095 2.66588C2.5103 3.00077 2.30769 3.45497 2.30769 3.92857V21.8714L9.33846 17.3286C9.53336 17.2054 9.76423 17.1405 10 17.1429Z" fill="white"/>
</svg>
