<svg width="29" height="29" viewBox="0 0 29 29" fill="none" xmlns="http://www.w3.org/2000/svg">
<path d="M7.795 23.3388C9.63556 25.3839 12.0574 26.6565 14.6479 26.9398C17.2383 27.2232 19.837 26.4997 22.0011 24.8926C24.1653 23.2856 25.7609 20.8944 26.5161 18.1266C27.2713 15.3589 27.1393 12.3858 26.1427 9.71398C25.1461 7.0422 23.3465 4.83708 21.0505 3.47441C18.7546 2.11174 16.1044 1.67584 13.5516 2.241C10.9989 2.80616 8.70145 4.3374 7.05092 6.57378C5.40038 8.81015 4.49887 11.6133 4.5 14.5054V17.2777" stroke="white" stroke-width="2.5" stroke-linecap="round" stroke-linejoin="round"/>
<path d="M2 14.4998L4.5 17.2775L7 14.4998M14.5 8.94421V15.8886H20.75" stroke="white" stroke-width="2.5" stroke-linecap="round" stroke-linejoin="round"/>
</svg>
