<svg width="25" height="25" viewBox="0 0 25 25" fill="none" xmlns="http://www.w3.org/2000/svg">
<path fill-rule="evenodd" clip-rule="evenodd" d="M11.3953 0.457485C11.6883 0.164557 12.0857 0 12.5 0C12.9143 0 13.3117 0.164557 13.6047 0.457485L24.5425 11.3951C24.761 11.6137 24.9097 11.892 24.97 12.1951C25.0303 12.4981 24.9993 12.8123 24.8811 13.0977C24.7628 13.3832 24.5626 13.6272 24.3057 13.7989C24.0488 13.9706 23.7468 14.0623 23.4378 14.0624H21.8752V23.4375C21.8752 23.8519 21.7106 24.2493 21.4176 24.5423C21.1246 24.8354 20.7271 25 20.3127 25H17.1876C16.7732 25 16.3758 24.8354 16.0827 24.5423C15.7897 24.2493 15.6251 23.8519 15.6251 23.4375V18.7499C15.6251 18.3355 15.4605 17.9381 15.1674 17.645C14.8744 17.352 14.477 17.1874 14.0625 17.1874H10.9375C10.523 17.1874 10.1256 17.352 9.83257 17.645C9.53954 17.9381 9.37492 18.3355 9.37492 18.7499V23.4375C9.37492 23.8519 9.21029 24.2493 8.91726 24.5423C8.62422 24.8354 8.22679 25 7.81238 25H4.68729C4.27288 25 3.87544 24.8354 3.58241 24.5423C3.28937 24.2493 3.12475 23.8519 3.12475 23.4375V14.0624H1.56221C1.25322 14.0623 0.951179 13.9706 0.694282 13.7989C0.437384 13.6272 0.237161 13.3832 0.118923 13.0977C0.000685879 12.8123 -0.0302572 12.4981 0.0300062 12.1951C0.0902697 11.892 0.239034 11.6137 0.457492 11.3951L11.3953 0.457485Z" fill="white"/>
</svg>
