<svg width="25" height="25" viewBox="0 0 25 25" fill="none" xmlns="http://www.w3.org/2000/svg">
<path fill-rule="evenodd" clip-rule="evenodd" d="M18.3838 15.0724C20.0908 14.0372 21.361 12.5783 22.0123 10.9047C22.6635 9.23114 22.6626 7.42871 22.0094 5.75561C21.3563 4.08252 20.0846 2.62461 18.3764 1.59072C16.6682 0.556826 14.6112 0 12.5 0C10.3888 0 8.33182 0.556826 6.62362 1.59072C4.91542 2.62461 3.64368 4.08252 2.99056 5.75561C2.33744 7.42871 2.33646 9.23114 2.98775 10.9047C3.63904 12.5783 4.90918 14.0372 6.61625 15.0724C4.67881 15.6535 3.00372 16.7186 1.81961 18.1225C0.635496 19.5264 5.14062e-05 21.2006 0 22.9166V23.9583C0 24.2346 0.131696 24.4995 0.366117 24.6949C0.600537 24.8902 0.918479 25 1.25 25C1.58152 25 1.89946 24.8902 2.13388 24.6949C2.3683 24.4995 2.5 24.2346 2.5 23.9583V22.9166C2.5 21.2589 3.29018 19.6691 4.6967 18.4969C6.10322 17.3247 8.01088 16.6662 10 16.6662H15C16.9891 16.6662 18.8968 17.3247 20.3033 18.4969C21.7098 19.6691 22.5 21.2589 22.5 22.9166V23.9583C22.5 24.2346 22.6317 24.4995 22.8661 24.6949C23.1005 24.8902 23.4185 25 23.75 25C24.0815 25 24.3995 24.8902 24.6339 24.6949C24.8683 24.4995 25 24.2346 25 23.9583V22.9166C24.9999 21.2006 24.3645 19.5264 23.1804 18.1225C21.9963 16.7186 20.3212 15.6535 18.3838 15.0724ZM5 8.33243C5 6.67474 5.79018 5.08494 7.1967 3.91278C8.60322 2.74061 10.5109 2.0821 12.5 2.0821C14.4891 2.0821 16.3968 2.74061 17.8033 3.91278C19.2098 5.08494 20 6.67474 20 8.33243C20 9.99013 19.2098 11.5799 17.8033 12.7521C16.3968 13.9243 14.4891 14.5828 12.5 14.5828C10.5109 14.5828 8.60322 13.9243 7.1967 12.7521C5.79018 11.5799 5 9.99013 5 8.33243Z" fill="white"/>
</svg>
