<svg width="21" height="19" viewBox="0 0 21 19" fill="none" xmlns="http://www.w3.org/2000/svg">
<path d="M0.1521 1.69564C0.15393 1.43301 0.259 1.18165 0.444613 0.995854C0.630225 0.810055 0.88148 0.704731 1.1441 0.702637H19.1601C19.7081 0.702637 20.1521 1.14764 20.1521 1.69564V17.7096C20.1503 17.9723 20.0452 18.2236 19.8596 18.4094C19.674 18.5952 19.4227 18.7005 19.1601 18.7026H1.1441C0.880913 18.7024 0.628596 18.5976 0.442589 18.4114C0.256582 18.2252 0.152099 17.9728 0.1521 17.7096V1.69564ZM2.1521 2.70264V16.7026H18.1521V2.70264H2.1521ZM4.1521 4.70264H10.1521V10.7026H4.1521V4.70264ZM6.1521 6.70264V8.70264H8.1521V6.70264H6.1521ZM4.1521 12.7026H16.1521V14.7026H4.1521V12.7026ZM12.1521 4.70264H16.1521V6.70264H12.1521V4.70264ZM12.1521 8.70264H16.1521V10.7026H12.1521V8.70264Z" fill="#FEFEFE"/>
</svg>
